<?xml version="1.0" standalone="no"?><!DOCTYPE svg PUBLIC "-//W3C//DTD SVG 1.1//EN" "http://www.w3.org/Graphics/SVG/1.1/DTD/svg11.dtd"><svg t="1598596547680" class="icon" viewBox="0 0 1638 1024" version="1.1" xmlns="http://www.w3.org/2000/svg" p-id="8155" xmlns:xlink="http://www.w3.org/1999/xlink" width="102" height="64"><defs><style type="text/css"></style></defs><path d="M261.12 613.888c-43.008 0-78.336-37.376-78.336-83.456s35.328-83.456 78.336-83.456 78.336 37.376 78.336 83.456-35.328 83.456-78.336 83.456z m0-115.712c-14.848 0-27.136 14.336-27.136 32.256s12.288 32.256 27.136 32.256 27.136-14.336 27.136-32.256-12.288-32.256-27.136-32.256z" fill="#012733" p-id="8156"></path><path d="M730.112 1021.952c-37.376 0-71.68-15.36-97.28-43.008-79.36 17.408-164.864 17.408-244.224 0-25.6 27.648-59.904 43.008-97.28 43.008-74.752 0-135.68-64-135.68-142.848 0-6.656 0.512-13.312 1.536-19.968-24.064-23.04-45.056-48.128-61.952-75.264-55.296-12.8-95.232-64.512-95.232-124.928v-103.936c0-58.88 38.4-110.08 91.648-123.904 40.96-68.096 107.008-125.952 187.392-163.84l29.184-13.824c12.8-6.144 28.16-0.512 34.304 12.288 6.144 12.8 0.512 28.16-12.288 34.304l-29.184 13.824c-74.24 34.816-134.656 89.088-169.984 152.576l-6.144 10.752-12.288 2.048c-34.816 5.12-60.928 37.888-60.928 76.288V658.944c0 39.424 27.136 72.192 62.976 76.288l12.8 1.536 6.656 11.264c17.408 30.208 40.448 58.368 68.608 82.944l11.264 10.24-3.584 14.848c-2.048 7.68-2.56 15.36-2.56 23.04 0 50.688 37.888 91.648 84.48 91.648 26.624 0 50.688-12.8 66.56-35.328l10.24-14.336 16.896 4.096c80.896 20.48 169.984 20.48 250.88 0l16.896-4.096 10.24 14.336c15.872 22.528 40.448 35.328 66.56 35.328 46.592 0 84.48-40.96 84.48-91.648 0-7.68-1.024-15.36-2.56-23.04l-3.584-14.848 11.776-10.24c69.632-61.44 108.032-141.824 108.032-226.304 0-129.024-88.576-244.224-231.424-301.568l-29.696-11.776c-13.312-5.12-19.456-19.968-14.336-33.28s19.968-19.456 33.28-14.336l29.696 11.776c162.816 65.024 263.68 198.656 263.68 349.184 0 94.72-40.448 184.32-114.688 254.464 1.024 6.656 1.536 13.312 1.536 19.968-1.024 78.848-61.952 142.848-136.704 142.848z" fill="#012733" p-id="8157"></path><path d="M503.296 401.92c-108.544 0-196.608-89.6-196.608-199.68s88.064-199.68 196.608-199.68c14.336 0 25.6 11.264 25.6 25.6s-11.264 25.6-25.6 25.6c-80.384 0-145.408 66.56-145.408 148.48s65.024 148.48 145.408 148.48 145.408-66.56 145.408-148.48c0-32.768-10.24-64-29.696-90.112-8.192-11.264-6.144-27.136 5.12-35.84 11.264-8.192 27.648-6.144 35.84 5.12 26.112 34.816 39.424 76.288 39.424 120.32 0.512 110.08-88.064 200.192-196.096 200.192zM928.768 764.416c-4.608 0-9.728-1.536-13.824-4.096-11.776-7.68-15.36-23.552-7.68-35.328 69.632-107.008 90.112-239.104 55.808-361.984-3.584-13.824 4.096-27.648 17.92-31.744 13.824-3.584 27.648 4.096 31.744 17.92 38.4 137.216 15.872 284.672-61.952 403.968-5.632 7.168-13.824 11.264-22.016 11.264z" fill="#012733" p-id="8158"></path></svg>