<?xml version="1.0" standalone="no"?><!DOCTYPE svg PUBLIC "-//W3C//DTD SVG 1.1//EN" "http://www.w3.org/Graphics/SVG/1.1/DTD/svg11.dtd"><svg t="1598608015167" class="icon" viewBox="0 0 1024 1024" version="1.1" xmlns="http://www.w3.org/2000/svg" p-id="11448" xmlns:xlink="http://www.w3.org/1999/xlink" width="32" height="32"><defs><style type="text/css"></style></defs><path d="M622.89 78.05A448.53 448.53 0 0 0 511.68 64C311.92 64 129.79 198.66 78.05 401.11 16.81 640.77 161.44 884.7 401.11 946a448.53 448.53 0 0 0 111.21 14C712.08 960 894.21 825.34 946 622.89c61.19-239.66-83.44-483.59-323.11-544.84z m261.05 529C840.46 777.18 687.65 896 512.32 896A385.66 385.66 0 0 1 417 883.94 383.9 383.9 0 0 1 140.06 417c43.47-170.17 196.3-289 371.65-289a385.54 385.54 0 0 1 95.34 12.06 383.9 383.9 0 0 1 276.89 467z" p-id="11449"></path><path d="M705.6 479.9h-160v-160a32 32 0 0 0-64 0v160h-160a32 32 0 0 0 0 64h160v160a32 32 0 0 0 64 0v-160h160a32 32 0 0 0 0-64z" p-id="11450"></path></svg>